<svg data-v-fde0c5aa="" xmlns="http://www.w3.org/2000/svg" viewBox="0 0 300 300" class="iconLeft">
    <!---->
    <defs data-v-fde0c5aa="">
        <!---->
    </defs>

    <defs data-v-fde0c5aa="">
        <!---->
    </defs>
    <g data-v-fde0c5aa="" id="07fc894c-597b-40f3-ae8c-ed879dd57931" fill="#022239"
       transform="matrix(3.9538020552543918,0,0,3.9538020552543918,113.11624101565711,119.08126724919555)">
        <path d="M0.85 12.33L0.85 12.33L0.85 10.83Q2.05 11.31 3.62 11.31L3.62 11.31Q4.79 11.31 4.79 10.55L4.79 10.55Q4.79 9.84 4.00 9.84L4.00 9.84L2.70 9.84Q0.51 9.84 0.51 7.68L0.51 7.68Q0.51 5.43 3.71 5.43L3.71 5.43Q5.06 5.43 6.25 5.84L6.25 5.84L6.25 7.34Q5.06 6.86 3.66 6.86L3.66 6.86Q2.19 6.86 2.19 7.62L2.19 7.62Q2.19 8.33 3.04 8.33L3.04 8.33L4.20 8.33Q6.60 8.33 6.60 10.49L6.60 10.49Q6.60 12.74 3.55 12.74L3.55 12.74Q2.05 12.74 0.85 12.33ZM9.67 12.67L7.86 12.67L7.86 2.90L9.67 2.90L9.67 6.41Q10.52 5.50 11.84 5.50L11.84 5.50Q14.39 5.50 14.39 8.15L14.39 8.15L14.39 12.67L12.58 12.67L12.58 8.15Q12.58 6.96 11.40 6.96L11.40 6.96Q10.51 6.96 9.67 7.66L9.67 7.66L9.67 12.67ZM16.10 2.90L17.91 2.90L17.91 4.33L16.10 4.33L16.10 2.90ZM16.10 5.50L17.91 5.50L17.91 12.67L16.10 12.67L16.10 5.50ZM22.65 5.50L22.65 5.50Q25.92 5.50 25.92 8.83L25.92 8.83Q25.92 9.28 25.85 9.72L25.85 9.72L21.09 9.72Q21.09 11.24 23.32 11.24L23.32 11.24Q24.40 11.24 25.49 11.03L25.49 11.03L25.49 12.47Q24.54 12.67 23.18 12.67L23.18 12.67Q19.28 12.67 19.28 9.00L19.28 9.00Q19.28 5.50 22.65 5.50ZM21.09 8.46L21.09 8.46L24.15 8.46L24.15 8.41Q24.15 6.92 22.65 6.92L22.65 6.92Q21.21 6.92 21.09 8.46ZM27.28 2.90L29.09 2.90L29.09 12.67L27.28 12.67L27.28 2.90ZM35.34 10.94L35.34 7.37Q34.78 7 33.93 7L33.93 7Q32.25 7 32.25 8.89L32.25 8.89Q32.25 11.14 34.00 11.14L34.00 11.14Q34.71 11.14 35.34 10.94L35.34 10.94ZM37.15 2.90L37.15 12.24Q35.51 12.67 33.93 12.67L33.93 12.67Q30.45 12.67 30.45 8.94L30.45 8.94Q30.45 5.50 33.86 5.50L33.86 5.50Q34.58 5.50 35.34 5.84L35.34 5.84L35.34 2.90L37.15 2.90Z"></path>
    </g>
    <defs data-v-fde0c5aa="">
        <linearGradient data-v-fde0c5aa="" gradientTransform="rotate(25)" id="6caced3c-d874-4880-b5fd-023eecd3dd6a"
                        x1="0%" y1="0%" x2="100%" y2="0%">
            <stop data-v-fde0c5aa="" offset="0%" stop-color="#000A68" stop-opacity="1"></stop>
            <stop data-v-fde0c5aa="" offset="100%" stop-color="#00C4EE" stop-opacity="1"></stop>
        </linearGradient>
    </defs>
    <g data-v-fde0c5aa="" id="82095d71-9bde-4615-8dcc-913ef6bf0b02" stroke="none"
       fill="url(#6caced3c-d874-4880-b5fd-023eecd3dd6a)"
       transform="matrix(1.9416462508165766,0,0,1.9416462508165766,40,118.93366021839704)">
        <path d="M17.572 23.933l4.106 7.095L32 13.189h-8.981V7.582L11.51.972 0 7.582v13.222l11.51 6.611 6.062-3.482zm10.96-8.744l-6.855 11.846-6.855-11.846h13.71z"></path>
    </g>
    <!---->
</svg>